<?xml version="1.0" encoding="UTF-8"?>
<svg id="Circular" xmlns="http://www.w3.org/2000/svg" version="1.1" viewBox="0 0 50 50">
  <defs>
    <style>
      .cls-1 {
        fill: #282828;
        fill-rule: evenodd;
        stroke-width: 0px;
      }
    </style>
  </defs>
  <path class="cls-1" d="M25,50C11.2,50,0,38.8,0,25S11.2,0,25,0s25,11.2,25,25-11.2,25-25,25ZM38,33.8c.3,0,.6-.3.6-.6v-15.7l-12.7,10.1c-.2.2-.5.3-.8.3s-.6,0-.8-.3l-12.7-10.1v15.7c0,.3.3.6.6.6h25.9,0ZM36,16.2l-11,8.7-11-8.7h22ZM41.1,16.8v16.4c0,1.7-1.4,3.1-3.1,3.1H12c-1.7,0-3.1-1.4-3.1-3.1v-16.4c0-1.7,1.4-3.1,3.1-3.1h25.9c1.7,0,3.1,1.4,3.1,3.1h0Z"/>
</svg>