<?xml version="1.0" encoding="UTF-8"?>
<svg id="Layer_1" data-name="Layer 1" xmlns="http://www.w3.org/2000/svg" version="1.1" viewBox="0 0 512 512">
  <defs>
    <style>
      .cls-1 {
        fill: #6772e6;
        stroke-width: 0px;
      }
    </style>
  </defs>
  <path class="cls-1" d="M291.3,295.4c-9.7,9.7-22.5,14.6-35.3,14.6s-25.6-4.9-35.3-14.6l-25.4-25.4-127.9,127.9c3.2,1.4,6.8,2.2,10.6,2.2h356c3.8,0,7.3-.8,10.6-2.2l-127.9-127.9-25.4,25.4Z"/>
  <path class="cls-1" d="M458.6,128.1l-127.9,127.9,127.9,127.9c1.4-3.2,2.2-6.8,2.2-10.6v-234.6c0-3.8-.8-7.3-2.2-10.6h0Z"/>
  <path class="cls-1" d="M202.3,249h0s32.4,32.4,32.4,32.4c11.8,11.8,30.9,11.8,42.6,0l167.3-167.3c-3.2-1.4-6.8-2.2-10.6-2.2H78c-3.8,0-7.3.8-10.6,2.2l134.9,134.9h0s0,0,0,0Z"/>
  <path class="cls-1" d="M53.4,128.1c-1.4,3.2-2.2,6.8-2.2,10.6v234.6c0,3.8.8,7.3,2.2,10.6l127.9-127.9-127.9-127.9Z"/>
</svg>