<?xml version="1.0" encoding="UTF-8"?>
<svg id="Layer_1" data-name="Layer 1" xmlns="http://www.w3.org/2000/svg" version="1.1" viewBox="0 0 169.1 169.1">
  <defs>
    <style>
      .cls-1 {
        fill: #6772e6;
        stroke-width: 0px;
      }
    </style>
  </defs>
  <path class="cls-1" d="M122.4,0H46.7C20.9,0,0,20.9,0,46.7v75.8c0,25.7,20.9,46.7,46.7,46.7h75.8c25.7,0,46.7-20.9,46.7-46.7V46.7C169.1,20.9,148.1,0,122.4,0ZM154.1,122.4c0,17.5-14.2,31.7-31.7,31.7H46.7c-17.5,0-31.7-14.2-31.7-31.7V46.7c0-17.5,14.2-31.7,31.7-31.7h75.8c17.5,0,31.7,14.2,31.7,31.7v75.8h0Z"/>
  <path class="cls-1" d="M84.5,41c-24,0-43.6,19.5-43.6,43.6s19.5,43.6,43.6,43.6,43.6-19.5,43.6-43.6-19.5-43.6-43.6-43.6ZM84.5,113.1c-15.7,0-28.6-12.8-28.6-28.6s12.8-28.6,28.6-28.6,28.6,12.8,28.6,28.6c0,15.7-12.8,28.6-28.6,28.6Z"/>
  <path class="cls-1" d="M129.9,28.3c-2.9,0-5.7,1.2-7.8,3.2-2.1,2-3.2,4.9-3.2,7.8s1.2,5.7,3.2,7.8c2,2,4.9,3.2,7.8,3.2s5.7-1.2,7.8-3.2c2.1-2,3.2-4.9,3.2-7.8s-1.2-5.7-3.2-7.8c-2-2-4.9-3.2-7.8-3.2Z"/>
</svg>