<?xml version="1.0" encoding="UTF-8"?>
<svg id="Layer_1" data-name="Layer 1" xmlns="http://www.w3.org/2000/svg" version="1.1" viewBox="0 0 512 512">
  <defs>
    <style>
      .cls-1 {
        fill: #282828;
        stroke-width: 0px;
      }
    </style>
  </defs>
  <circle class="cls-1" cx="256" cy="256" r="52.5"/>
  <path class="cls-1" d="M256,6C117.9,6,6,117.9,6,256s111.9,250,250,250,250-111.9,250-250S394.1,6,256,6ZM410.5,319.5c-1.2,23.8-7.9,47.2-25.2,64.3-17.5,17.3-41,23.7-65,24.9h-128.4c-24-1.2-47.5-7.6-65-24.9-17.3-17.1-24-40.6-25.2-64.3v-127.1c1.2-23.8,7.9-47.2,25.2-64.3,17.5-17.3,41-23.7,65-24.9h128.4c24,1.2,47.5,7.6,65,24.9,17.3,17.1,24,40.6,25.2,64.3v127.1Z"/>
  <path class="cls-1" d="M318.6,132.1c-31.3-.9-93.9-.9-125.2,0-16.3.4-34.7,4.5-46.3,16.9-12.1,12.9-16.6,28.4-17.1,45.8-.8,30.6,0,122.3,0,122.3.5,17.4,5,33,17.1,45.8,11.6,12.4,30.1,16.4,46.3,16.9,31.3.9,93.9.9,125.2,0,16.3-.4,34.7-4.5,46.3-16.9,12.1-12.9,16.6-28.4,17.1-45.8v-122.3c-.5-17.4-5-33-17.1-45.8-11.6-12.4-30.1-16.4-46.3-16.9h0ZM256,337.4c-44.9,0-81.4-36.4-81.4-81.4s36.4-81.4,81.4-81.4,81.4,36.4,81.4,81.4h0c0,44.9-36.4,81.4-81.4,81.4ZM337.7,191.4c-9,0-16.3-7.3-16.3-16.3s7.3-16.3,16.3-16.3,16.3,7.3,16.3,16.3-7.3,16.3-16.3,16.3h0Z"/>
</svg>