<?xml version="1.0" encoding="UTF-8"?>
<svg id="Capa_1" data-name="Capa 1" xmlns="http://www.w3.org/2000/svg" version="1.1" viewBox="0 0 447.2 447.2">
  <defs>
    <style>
      .cls-1 {
        fill: #fff;
        stroke-width: 0px;
      }
    </style>
  </defs>
  <path class="cls-1" d="M420.4,192.2c-1.8-.3-3.7-.4-5.5-.4H99.3l6.9-3.2c6.7-3.2,12.8-7.5,18.1-12.8l88.5-88.5c11.7-11.1,13.6-29,4.6-42.4-10.4-14.3-30.5-17.4-44.7-6.9-1.2.8-2.2,1.8-3.3,2.8L9.4,200.8c-12.5,12.5-12.5,32.8,0,45.3,0,0,0,0,0,0l160,160c12.5,12.5,32.8,12.5,45.3,0,1-1,1.9-2,2.7-3.1,9-13.4,7-31.3-4.6-42.4l-88.3-88.6c-4.7-4.7-10.1-8.6-16-11.7l-9.6-4.3h314.2c16.3.6,30.7-10.8,33.8-26.9,2.8-17.4-9-33.9-26.5-36.7Z"/>
</svg>